<svg version="1.2" xmlns="http://www.w3.org/2000/svg" viewBox="0 0 29 29" width="29" height="29">
	<title>delete-svg</title>
	<style>
		.s0 { fill: #ff0000 } 
	</style>
	<path id="Layer" fill-rule="evenodd" class="s0" d="m19.8 27h-10.6q-0.6 0-1.1-0.2-0.5-0.2-0.9-0.6-0.4-0.3-0.7-0.8-0.2-0.5-0.3-1.1l-1.7-17.2q0-0.2 0-0.4 0.1-0.2 0.3-0.4 0.1-0.1 0.3-0.2 0.2-0.1 0.4-0.1h18q0.2 0 0.4 0.1 0.2 0.1 0.3 0.2 0.2 0.2 0.2 0.4 0.1 0.2 0.1 0.4l-1.7 17.2q-0.1 0.6-0.3 1.1-0.3 0.5-0.7 0.8-0.4 0.4-0.9 0.6-0.5 0.2-1.1 0.2zm-13.2-19l1.6 16.1q0 0.2 0.1 0.4 0.1 0.1 0.2 0.2 0.2 0.2 0.3 0.2 0.2 0.1 0.4 0.1h10.6q0.2 0 0.4-0.1 0.1 0 0.3-0.2 0.1-0.1 0.2-0.2 0.1-0.2 0.1-0.4l1.6-16.1z"/>
	<path id="Layer" class="s0" d="m26 8h-23q-0.4 0-0.7-0.3-0.3-0.3-0.3-0.7 0-0.4 0.3-0.7 0.3-0.3 0.7-0.3h23q0.4 0 0.7 0.3 0.3 0.3 0.3 0.7 0 0.4-0.3 0.7-0.3 0.3-0.7 0.3zm-11.5 15q-0.2 0-0.4-0.1-0.2-0.1-0.3-0.2-0.1-0.1-0.2-0.3-0.1-0.2-0.1-0.4v-11q0-0.4 0.3-0.7 0.3-0.3 0.7-0.3 0.4 0 0.7 0.3 0.3 0.3 0.3 0.7v11q0 0.2-0.1 0.4-0.1 0.2-0.2 0.3-0.1 0.1-0.3 0.2-0.2 0.1-0.4 0.1zm-3.5 0q-0.2 0-0.4-0.1-0.1 0-0.3-0.2-0.1-0.1-0.2-0.3-0.1-0.1-0.1-0.3l-1-11q0-0.2 0-0.4 0.1-0.2 0.2-0.3 0.2-0.2 0.3-0.3 0.2-0.1 0.4-0.1 0.2 0 0.4 0 0.2 0.1 0.3 0.2 0.2 0.2 0.3 0.3 0.1 0.2 0.1 0.4l1 11q0 0.2-0.1 0.4 0 0.2-0.2 0.4-0.1 0.1-0.3 0.2-0.2 0.1-0.4 0.1zm7 0q-0.2 0-0.4-0.1-0.2-0.1-0.3-0.2-0.2-0.2-0.2-0.4-0.1-0.2-0.1-0.4l1-11c0.1-0.5 0.5-0.9 1.1-0.9q0.2 0 0.4 0.1 0.1 0.1 0.3 0.3 0.1 0.1 0.2 0.3 0 0.2 0 0.4l-1 11q0 0.2-0.1 0.3-0.1 0.2-0.2 0.3-0.2 0.2-0.3 0.2-0.2 0.1-0.4 0.1z"/>
	<path id="Layer" fill-rule="evenodd" class="s0" d="m19 8h-9q-0.2 0-0.4-0.1-0.2-0.1-0.3-0.2-0.1-0.1-0.2-0.3-0.1-0.2-0.1-0.4v-4q0-0.2 0.1-0.4 0.1-0.2 0.2-0.3 0.1-0.1 0.3-0.2 0.2-0.1 0.4-0.1h9q0.2 0 0.4 0.1 0.2 0.1 0.3 0.2 0.1 0.1 0.2 0.3 0.1 0.2 0.1 0.4v4q0 0.2-0.1 0.4-0.1 0.2-0.2 0.3-0.1 0.1-0.3 0.2-0.2 0.1-0.4 0.1zm-8-2h7v-2h-7z"/>
</svg>