<svg version="1.2" xmlns="http://www.w3.org/2000/svg" viewBox="0 0 32 32" width="32" height="32">
	<title>edit-svg</title>
	<style>
		.s0 { fill: #00ff00 } 
	</style>
	<path id="Layer" fill-rule="evenodd" class="s0" d="m26.9 31.9h-23.9c-1.7 0-3-1.4-3-3v-23.9c0-1.6 1.3-3 3-3h16.2c0.6 0 1 0.5 1 1 0 0.6-0.4 1-1 1h-16.2c-0.6 0-1 0.5-1 1v23.9c0 0.5 0.4 1 1 1h23.9c0.5 0 1-0.5 1-1v-16.2c0-0.6 0.4-1 1-1 0.5 0 1 0.4 1 1v16.2c0 1.6-1.4 3-3 3zm-2.4-8.4q0 0 0 0l-19.3-0.1c-0.6 0-1-0.4-1-1 0-0.5 0.4-1 1-1q0 0 0 0l19.3 0.1c0.5 0 1 0.4 1 1 0 0.6-0.5 1-1 1zm-9.2-5.1c-0.5 0-0.8-0.2-1-0.4-0.3-0.2-0.7-0.9-0.1-2.1l0.6-1.4c0.5-1.1 1.6-2.6 2.4-3.5l8.8-8.7q0 0 0 0 0 0 0 0l0.5-0.5c1.1-1.2 2.9-1.2 4-0.2 1.1 1.1 1 2.9-0.2 4 0 0-0.5 0.6-0.6 0.6l-8.6 8.7c-0.9 0.8-2.4 1.9-3.4 2.5l-1.3 0.7c-0.4 0.2-0.8 0.3-1.1 0.3zm11.4-14l-8 8.1c-0.7 0.7-1.7 2-2.1 2.9l-0.2 0.4 0.3-0.2c0.9-0.4 2.2-1.4 3-2.1l8-8.1zm1.5-1.4l0.9 0.9c0.2-0.3 0.2-0.7 0-0.9-0.2-0.2-0.6-0.2-0.9 0z"/>
</svg>