<svg version="1.2" xmlns="http://www.w3.org/2000/svg" viewBox="0 0 64 64" width="64" height="64">
	<title>layers-svg-svg</title>
	<style>
		.s0 { opacity: .7;fill: #2f2b3d } 
	</style>
	<path id="Layer" class="s0" d="m61.9 31.2l-5.9-2.8q-0.3-0.1-0.6-0.2-0.4-0.1-0.7-0.1-0.4 0-0.7 0.1-0.3 0.1-0.7 0.2l-20 9.2q-0.3 0.1-0.6 0.2-0.4 0.1-0.7 0.1-0.3 0-0.7-0.1-0.3-0.1-0.6-0.2l-20-9.2q-0.4-0.1-0.7-0.2-0.3-0.1-0.7-0.1-0.3 0-0.7 0.1-0.3 0.1-0.6 0.2l-5.9 2.8q-0.3 0.1-0.4 0.4-0.2 0.2-0.2 0.6 0 0.3 0.2 0.5 0.1 0.3 0.4 0.4l28.6 13.1q0.3 0.1 0.6 0.2 0.4 0.1 0.7 0.1 0.3 0 0.7-0.1 0.3-0.1 0.6-0.2l28.6-13.1q0.2-0.1 0.4-0.4 0.2-0.2 0.2-0.5 0-0.4-0.2-0.6-0.1-0.3-0.4-0.4z"/>
	<path id="Layer" class="s0" d="m61.9 47.9l-5.9-2.7q-0.3-0.2-0.6-0.3-0.4 0-0.7 0-0.4 0-0.7 0-0.3 0.1-0.7 0.3l-20 9.1q-0.3 0.1-0.6 0.2-0.4 0.1-0.7 0.1-0.3 0-0.7-0.1-0.3-0.1-0.6-0.2l-20-9.1q-0.4-0.2-0.7-0.3-0.3 0-0.7 0-0.3 0-0.7 0-0.3 0.1-0.6 0.3l-5.9 2.7c-0.8 0.4-0.8 1.6 0 2l28.6 13q0.3 0.1 0.6 0.2 0.4 0.1 0.7 0.1 0.3 0 0.7-0.1 0.3-0.1 0.6-0.2l28.6-13c0.8-0.4 0.8-1.6 0-2z"/>
	<path id="Layer" class="s0" d="m61.9 31.2l-1.9-0.9-26.7 12.1q-0.3 0.2-0.6 0.3-0.4 0-0.7 0-0.3 0-0.7 0-0.3-0.1-0.6-0.3l-26.7-12.1-1.9 0.9q-0.3 0.1-0.4 0.4-0.2 0.2-0.2 0.6 0 0.3 0.2 0.5 0.2 0.3 0.4 0.4l28.6 13.1q0.3 0.1 0.6 0.2 0.4 0.1 0.7 0.1 0.3 0 0.7-0.1 0.3-0.1 0.6-0.2l28.6-13.1c0.8-0.3 0.8-1.5 0-1.9zm0 16.7l-1.9-0.9-26.7 12.2q-0.3 0.1-0.6 0.2-0.4 0.1-0.7 0.1-0.3 0-0.7-0.1-0.3-0.1-0.6-0.2l-26.7-12.2-1.9 0.9c-0.8 0.4-0.8 1.6 0 2l28.6 13q0.3 0.1 0.6 0.2 0.4 0.1 0.7 0.1 0.3 0 0.7-0.1 0.3-0.1 0.6-0.2l28.6-13c0.8-0.4 0.8-1.6 0-2z"/>
	<path id="Layer" class="s0" d="m61.9 14.3l-28.3-13.2q-0.4-0.1-0.8-0.2-0.4-0.1-0.8-0.1-0.4 0-0.8 0.1-0.4 0.1-0.8 0.2l-28.3 13.2q-0.3 0.1-0.4 0.4-0.2 0.3-0.2 0.6 0 0.3 0.2 0.6 0.1 0.2 0.4 0.4l28.6 13q0.3 0.2 0.6 0.2 0.4 0.1 0.7 0.1 0.3 0 0.7-0.1 0.3 0 0.6-0.2l28.6-13q0.2-0.2 0.4-0.4 0.2-0.3 0.2-0.6 0-0.3-0.2-0.6-0.1-0.3-0.4-0.4z"/>
	<path id="Layer" class="s0" d="m61.9 14.3l-28.3-13.2q-0.4-0.1-0.8-0.2-0.4-0.1-0.8-0.1-0.4 0-0.8 0.1-0.4 0.1-0.8 0.2l-28.3 13.2q-0.3 0.1-0.4 0.4-0.2 0.3-0.2 0.6 0 0.3 0.2 0.6 0.1 0.2 0.4 0.4l28.6 13q0.3 0.2 0.6 0.2 0.4 0.1 0.7 0.1 0.3 0 0.7-0.1 0.3 0 0.6-0.2l28.6-13q0.2-0.2 0.4-0.4 0.2-0.3 0.2-0.6 0-0.3-0.2-0.6-0.1-0.3-0.4-0.4z"/>
	<path id="Layer" class="s0" d="m61.9 14.3l-28.3-13.2c-0.5-0.2-0.6-0.3-1.6-0.3v28.8c0 0 0.9-0.1 1.3-0.3l28.6-13c0.8-0.4 0.8-1.6 0-2z"/>
	<path id="Layer" class="s0" d="m61.9 14.3l-1.9-0.9-26.7 12.2q-0.3 0.1-0.6 0.2-0.4 0.1-0.7 0.1-0.3 0-0.7-0.1-0.3-0.1-0.6-0.2l-26.7-12.2-1.9 0.9q-0.3 0.1-0.4 0.4-0.2 0.3-0.2 0.6 0 0.3 0.2 0.6 0.1 0.2 0.4 0.4l28.6 13q0.3 0.2 0.6 0.2 0.4 0.1 0.7 0.1 0.3 0 0.7-0.1 0.3 0 0.6-0.2l28.6-13q0.2-0.2 0.4-0.4 0.2-0.3 0.2-0.6 0-0.3-0.2-0.6-0.1-0.3-0.4-0.4z"/>
</svg>