<svg version="1.2" xmlns="http://www.w3.org/2000/svg" viewBox="0 0 29 29" width="29" height="29">
	<title>search-svg-svg</title>
	<style>
		.s0 { fill: #ff0000 } 
	</style>
	<path id="Layer" fill-rule="evenodd" class="s0" d="m11.9 21.9c-5.6 0-10-4.5-10-10 0-5.6 4.4-10 10-10 5.5 0 10 4.4 10 10 0 5.5-4.5 10-10 10zm0-18c-4.5 0-8 3.5-8 8 0 4.4 3.5 8 8 8 4.4 0 8-3.6 8-8 0-4.5-3.6-8-8-8z"/>
	<path id="Layer" class="s0" d="m26.1 27.1q-0.1 0-0.1 0-0.1 0-0.2 0-0.1-0.1-0.2-0.1-0.1-0.1-0.2-0.1l-7.7-7.7q-0.2-0.3-0.2-0.7 0-0.5 0.2-0.8 0.3-0.2 0.8-0.2 0.4 0 0.7 0.2l7.7 7.7q0.2 0.3 0.2 0.6 0.1 0.2 0 0.5-0.1 0.3-0.4 0.5-0.3 0.1-0.6 0.1z"/>
</svg>