<svg version="1.2" xmlns="http://www.w3.org/2000/svg" viewBox="0 0 64 64" width="64" height="64">
	<title>settings-svg-svg</title>
	<defs>
		<clipPath clipPathUnits="userSpaceOnUse" id="cp1">
			<path d="m0 0h64v64h-64z"/>
		</clipPath>
	</defs>
	<style>
		.s0 { opacity: .7;fill: #2f2b3d } 
	</style>
	<g id="Clip-Path: Clip-Path" clip-path="url(#cp1)">
		<g id="Clip-Path">
			<g id="Layer">
				<path id="Layer" fill-rule="evenodd" class="s0" d="m36.5 61.6c-2.4 0.5-6.1 0.5-8.6 0.1-0.6-0.1-1.2-0.7-1.4-1.3l-1.6-5.5c-0.2-0.6-0.8-1.4-1.3-1.7l-5.9-3.4c-0.5-0.3-1.4-0.4-2-0.2l-5.6 1.4c-0.6 0.2-1.4-0.1-1.8-0.5-1.5-1.9-3.3-4.9-4.1-7.1-0.2-0.6 0-1.4 0.4-1.8l4.2-4.4c0.4-0.4 0.7-1.3 0.7-1.9v-6.8c0-0.6-0.3-1.5-0.8-1.9l-4.1-4.1c-0.4-0.5-0.6-1.3-0.4-1.9 0.2-0.5 0.9-2.1 1.8-3.6 0.9-1.5 1.9-2.9 2.3-3.4 0.4-0.5 1.2-0.7 1.8-0.6l5.9 1.5c0.6 0.1 1.5 0 2.1-0.3l5.8-3.4c0.6-0.3 1.1-1.1 1.3-1.7l1.5-5.5c0.1-0.6 0.8-1.2 1.4-1.3 2.2-0.4 5.7-0.4 8 0 0.6 0.1 1.3 0.7 1.4 1.3l1.5 5.5c0.2 0.6 0.7 1.4 1.3 1.7l5.8 3.4c0.6 0.3 1.5 0.4 2.1 0.2l5.5-1.4c0.6-0.2 1.4 0 1.8 0.5 1.6 1.9 3.4 5.1 4.2 7.4 0.3 0.5 0.1 1.4-0.4 1.8l-3.9 3.9c-0.4 0.4-0.8 1.3-0.8 1.9v6.8c0 0.6 0.4 1.5 0.8 1.9l4 3.9c0.4 0.5 0.6 1.3 0.4 1.9-0.2 0.7-1 2.3-1.9 4-0.9 1.5-1.9 2.9-2.3 3.4-0.4 0.5-1.2 0.7-1.8 0.6l-5.3-1.4c-0.6-0.2-1.5-0.1-2 0.2l-5.9 3.4c-0.5 0.3-1.1 1.1-1.3 1.7l-1.4 5.4c-0.2 0.6-0.8 1.2-1.4 1.3zm-4.5-16.1c7.5 0 13.5-6 13.5-13.5 0-7.5-6-13.5-13.5-13.5-7.5 0-13.5 6-13.5 13.5 0 7.5 6 13.5 13.5 13.5z"/>
			</g>
		</g>
	</g>
</svg>