<svg xmlns="http://www.w3.org/2000/svg" width="48" height="48" id="user"><path fill-rule="evenodd" d="M24 0C10.751 0 0 10.751 0 24s10.751 24 24 24 24-10.751 24-24S37.249 0 24 0zm0 1c12.708 0 23 10.291 23 23S36.708 47 24 47 1 36.709 1 24 11.292 1 24 1zm-3.52 8.998c-3.021 0-5.48 2.47-5.48 5.5s2.459 5.5 5.48 5.5c3.022 0 5.48-2.47 5.48-5.5.001-3.03-2.458-5.5-5.48-5.5zm0 1c2.48 0 4.481 2.008 4.48 4.5 0 2.493-2 4.5-4.48 4.5a4.483 4.483 0 0 1-4.48-4.5c0-2.492 2.001-4.5 4.48-4.5zm13.124 4.73a.5.5 0 0 0-.5.5v.512a3.96 3.96 0 0 0-.422.172l-.362-.36a.5.5 0 0 0-.707 0l-1.06 1.061a.5.5 0 0 0 0 .707l.361.362a3.852 3.852 0 0 0-.176.422h-.51a.5.5 0 0 0-.5.5v1.5a.5.5 0 0 0 .5.5h.512c.05.144.106.284.172.421l-.36.362a.5.5 0 0 0 0 .707l1.061 1.06a.5.5 0 0 0 .707 0l.362-.361c.137.067.277.124.422.174v.512a.5.5 0 0 0 .5.5h1.5a.5.5 0 0 0 .5-.5v-.512c.144-.05.284-.108.421-.174l.362.361a.5.5 0 0 0 .707 0l1.06-1.06a.5.5 0 0 0 0-.707l-.361-.362a3.86 3.86 0 0 0 .176-.421h.51a.5.5 0 0 0 .5-.5v-1.5a.5.5 0 0 0-.5-.5h-.512a3.856 3.856 0 0 0-.174-.422l.361-.362a.5.5 0 0 0 0-.707l-1.06-1.06a.5.5 0 0 0-.707 0l-.362.361a3.797 3.797 0 0 0-.421-.176v-.51a.5.5 0 0 0-.5-.5h-1.5zm.5 1h.5v.338a.5.5 0 0 0 .388.489c.315.072.617.195.89.367a.5.5 0 0 0 .62-.07l.238-.239.354.354-.239.236a.5.5 0 0 0-.07.62c.171.274.296.574.367.89a.5.5 0 0 0 .487.39h.34v.5h-.338a.5.5 0 0 0-.489.39 2.879 2.879 0 0 1-.367.89.5.5 0 0 0 .07.619l.239.238-.354.354-.236-.239a.5.5 0 0 0-.62-.07 2.872 2.872 0 0 1-.89.365.5.5 0 0 0-.39.489v.34h-.5v-.338a.5.5 0 0 0-.39-.489 2.881 2.881 0 0 1-.89-.367.5.5 0 0 0-.619.069l-.238.238-.354-.354.239-.238a.5.5 0 0 0 .07-.617 2.876 2.876 0 0 1-.367-.89.5.5 0 0 0-.487-.391h-.34v-.5h.338a.5.5 0 0 0 .489-.39c.072-.314.195-.616.367-.89a.5.5 0 0 0-.07-.619l-.239-.238.354-.354.236.237a.5.5 0 0 0 .62.072c.274-.171.574-.296.89-.367a.5.5 0 0 0 .39-.487v-.337zm.25 1.979c-.903 0-1.647.744-1.647 1.647 0 .902.743 1.646 1.647 1.646.903 0 1.646-.744 1.646-1.646 0-.903-.744-1.647-1.646-1.647zm0 1a.647.647 0 1 1-.001 1.294.647.647 0 0 1 0-1.294zM17.5 21.998c-4.148 0-7.5 3.368-7.5 7.53v4.515a.5.5 0 0 0 .5.5H23.1c.06-.18.148-.353.273-.506a1.57 1.57 0 0 1-.992-.494H15v-4.022a.5.5 0 1 0-1 0v4.022h-3v-4.016c0-3.626 2.891-6.529 6.5-6.529h6c1.505 0 2.88.51 3.979 1.361.25-.222.57-.361.93-.361h.173a7.447 7.447 0 0 0-5.082-2h-6zM28.408 25a.5.5 0 0 0-.5.5v.893c-.31.096-.608.219-.896.369l-.63-.63a.5.5 0 0 0-.706 0l-1.543 1.544a.5.5 0 0 0 0 .707l.629.629c-.15.288-.275.586-.371.896H23.5a.5.5 0 0 0-.5.5v2.182a.5.5 0 0 0 .5.5h.893c.095.31.217.61.367.898l-.627.63a.5.5 0 0 0 0 .706l1.543 1.543a.5.5 0 0 0 .707 0l.629-.63c.288.15.586.274.896.37v.893a.5.5 0 0 0 .5.5h2.182a.5.5 0 0 0 .5-.5v-.895c.31-.096.61-.217.898-.367l.63.63a.5.5 0 0 0 .706 0l1.543-1.544a.5.5 0 0 0 0-.707l-.63-.63c.15-.289.274-.587.37-.897h.893a.5.5 0 0 0 .5-.5v-2.182a.5.5 0 0 0-.5-.5h-.895a5.38 5.38 0 0 0-.367-.896l.63-.63a.5.5 0 0 0 0-.706l-1.544-1.543a.5.5 0 0 0-.707 0l-.63.63a5.38 5.38 0 0 0-.897-.372V25.5a.5.5 0 0 0-.5-.5h-2.182zm.5 1h1.182v.719a.5.5 0 0 0 .389.486c.483.11.945.301 1.365.565a.5.5 0 0 0 .619-.069l.508-.508.836.836-.506.504a.5.5 0 0 0-.07.62c.262.42.451.88.56 1.365a.5.5 0 0 0 .488.39H35v1.182h-.719a.5.5 0 0 0-.488.389c-.11.483-.3.945-.564 1.365a.5.5 0 0 0 .07.619l.508.508-.836.836-.506-.506a.5.5 0 0 0-.617-.07c-.421.262-.884.451-1.368.56a.5.5 0 0 0-.39.488V37h-1.182v-.719a.5.5 0 0 0-.388-.488 4.413 4.413 0 0 1-1.366-.564.5.5 0 0 0-.619.07l-.506.508-.836-.836.504-.506a.5.5 0 0 0 .073-.617 4.413 4.413 0 0 1-.561-1.368.5.5 0 0 0-.488-.39H24v-1.182h.719a.5.5 0 0 0 .486-.388c.11-.484.301-.946.565-1.366a.5.5 0 0 0-.069-.619l-.508-.506.836-.836.504.504a.5.5 0 0 0 .62.073c.42-.263.88-.452 1.365-.561a.5.5 0 0 0 .39-.488V26zm.592 3a2.51 2.51 0 0 0-2.5 2.498A2.513 2.513 0 0 0 29.5 34a2.51 2.51 0 0 0 2.498-2.502A2.508 2.508 0 0 0 29.5 29zm0 1a1.5 1.5 0 0 1 0 3c-.826 0-1.5-.676-1.5-1.502S28.674 30 29.5 30z" color="#000" font-family="sans-serif" font-weight="400" overflow="visible" style="line-height:normal;text-indent:0;text-align:start;text-decoration-line:none;text-decoration-style:solid;text-decoration-color:#000;text-transform:none;block-progression:tb;isolation:auto;mix-blend-mode:normal"></path></svg>